<mxfile host="app.diagrams.net" modified="2022-09-22T23:49:30.298Z" agent="5.0 (Macintosh; Intel Mac OS X 10_15_7) AppleWebKit/605.1.15 (KHTML, like Gecko) Version/15.5 Safari/605.1.15" etag="oFzkNaLhlwn_FZTjBrDQ" version="20.3.6" type="github">
  <diagram id="prtHgNgQTEPvFCAcTncT" name="Page-1">
    <mxGraphModel dx="1533" dy="534" grid="1" gridSize="10" guides="1" tooltips="1" connect="1" arrows="1" fold="1" page="1" pageScale="1" pageWidth="827" pageHeight="1169" math="0" shadow="0">
      <root>
        <mxCell id="0" />
        <mxCell id="1" parent="0" />
        <mxCell id="m2xjndi-wbcgePuahiK--1" value="" style="ellipse;whiteSpace=wrap;html=1;aspect=fixed;" vertex="1" parent="1">
          <mxGeometry x="200" y="90" width="140" height="140" as="geometry" />
        </mxCell>
        <mxCell id="m2xjndi-wbcgePuahiK--2" value="motor drive&amp;nbsp;&lt;br&gt;light detector rotates" style="text;html=1;strokeColor=none;fillColor=none;align=center;verticalAlign=middle;whiteSpace=wrap;rounded=0;" vertex="1" parent="1">
          <mxGeometry x="210" y="145" width="120" height="30" as="geometry" />
        </mxCell>
        <mxCell id="m2xjndi-wbcgePuahiK--5" value="" style="curved=1;endArrow=classic;html=1;rounded=0;exitX=0.693;exitY=0.971;exitDx=0;exitDy=0;exitPerimeter=0;entryX=0.829;entryY=0.1;entryDx=0;entryDy=0;entryPerimeter=0;" edge="1" parent="1" source="m2xjndi-wbcgePuahiK--1" target="m2xjndi-wbcgePuahiK--1">
          <mxGeometry width="50" height="50" relative="1" as="geometry">
            <mxPoint x="340" y="230" as="sourcePoint" />
            <mxPoint x="340" y="110" as="targetPoint" />
            <Array as="points">
              <mxPoint x="419" y="190" />
              <mxPoint x="369" y="140" />
            </Array>
          </mxGeometry>
        </mxCell>
        <mxCell id="m2xjndi-wbcgePuahiK--6" value="always" style="text;html=1;strokeColor=none;fillColor=none;align=center;verticalAlign=middle;whiteSpace=wrap;rounded=0;" vertex="1" parent="1">
          <mxGeometry x="370" y="160" width="120" height="30" as="geometry" />
        </mxCell>
        <mxCell id="m2xjndi-wbcgePuahiK--7" value="" style="ellipse;whiteSpace=wrap;html=1;aspect=fixed;" vertex="1" parent="1">
          <mxGeometry x="150" y="310" width="140" height="140" as="geometry" />
        </mxCell>
        <mxCell id="m2xjndi-wbcgePuahiK--8" value="motor drive&amp;nbsp;&lt;br&gt;light detector rotates" style="text;html=1;strokeColor=none;fillColor=none;align=center;verticalAlign=middle;whiteSpace=wrap;rounded=0;" vertex="1" parent="1">
          <mxGeometry x="160" y="365" width="120" height="30" as="geometry" />
        </mxCell>
        <mxCell id="m2xjndi-wbcgePuahiK--11" value="" style="endArrow=classic;html=1;rounded=0;" edge="1" parent="1">
          <mxGeometry width="50" height="50" relative="1" as="geometry">
            <mxPoint x="280" y="340" as="sourcePoint" />
            <mxPoint x="390" y="340" as="targetPoint" />
          </mxGeometry>
        </mxCell>
        <mxCell id="m2xjndi-wbcgePuahiK--12" value="" style="ellipse;whiteSpace=wrap;html=1;aspect=fixed;" vertex="1" parent="1">
          <mxGeometry x="390" y="310" width="140" height="140" as="geometry" />
        </mxCell>
        <mxCell id="m2xjndi-wbcgePuahiK--13" value="move to the weak light position" style="text;html=1;strokeColor=none;fillColor=none;align=center;verticalAlign=middle;whiteSpace=wrap;rounded=0;" vertex="1" parent="1">
          <mxGeometry x="400" y="365" width="120" height="30" as="geometry" />
        </mxCell>
        <mxCell id="m2xjndi-wbcgePuahiK--14" value="weak light detected" style="text;html=1;strokeColor=none;fillColor=none;align=center;verticalAlign=middle;whiteSpace=wrap;rounded=0;" vertex="1" parent="1">
          <mxGeometry x="270" y="310" width="120" height="30" as="geometry" />
        </mxCell>
        <mxCell id="m2xjndi-wbcgePuahiK--16" value="no light" style="text;html=1;strokeColor=none;fillColor=none;align=center;verticalAlign=middle;whiteSpace=wrap;rounded=0;" vertex="1" parent="1">
          <mxGeometry y="365" width="120" height="30" as="geometry" />
        </mxCell>
        <mxCell id="m2xjndi-wbcgePuahiK--17" value="" style="curved=1;endArrow=classic;html=1;rounded=0;" edge="1" parent="1" target="m2xjndi-wbcgePuahiK--7">
          <mxGeometry width="50" height="50" relative="1" as="geometry">
            <mxPoint x="170" y="441.94" as="sourcePoint" />
            <mxPoint x="149.99999999999994" y="309.99999999999994" as="targetPoint" />
            <Array as="points">
              <mxPoint x="100.96" y="390.96999999999997" />
              <mxPoint x="110.96" y="345.96999999999997" />
            </Array>
          </mxGeometry>
        </mxCell>
        <mxCell id="m2xjndi-wbcgePuahiK--18" value="no light detected" style="text;html=1;strokeColor=none;fillColor=none;align=center;verticalAlign=middle;whiteSpace=wrap;rounded=0;" vertex="1" parent="1">
          <mxGeometry x="280" y="440" width="120" height="30" as="geometry" />
        </mxCell>
        <mxCell id="m2xjndi-wbcgePuahiK--19" value="" style="endArrow=classic;html=1;rounded=0;entryX=1;entryY=1;entryDx=0;entryDy=0;" edge="1" parent="1" target="m2xjndi-wbcgePuahiK--7">
          <mxGeometry width="50" height="50" relative="1" as="geometry">
            <mxPoint x="390" y="430" as="sourcePoint" />
            <mxPoint x="440" y="380" as="targetPoint" />
          </mxGeometry>
        </mxCell>
        <mxCell id="m2xjndi-wbcgePuahiK--20" value="" style="curved=1;endArrow=classic;html=1;rounded=0;exitX=0.693;exitY=0.971;exitDx=0;exitDy=0;exitPerimeter=0;entryX=0.829;entryY=0.1;entryDx=0;entryDy=0;entryPerimeter=0;" edge="1" parent="1">
          <mxGeometry width="50" height="50" relative="1" as="geometry">
            <mxPoint x="510" y="450.00000000000006" as="sourcePoint" />
            <mxPoint x="529.04" y="328.06" as="targetPoint" />
            <Array as="points">
              <mxPoint x="631.98" y="414.06" />
              <mxPoint x="581.98" y="364.06" />
            </Array>
          </mxGeometry>
        </mxCell>
        <mxCell id="m2xjndi-wbcgePuahiK--21" value="weak light detected" style="text;html=1;strokeColor=none;fillColor=none;align=center;verticalAlign=middle;whiteSpace=wrap;rounded=0;" vertex="1" parent="1">
          <mxGeometry x="570" y="335" width="132" height="30" as="geometry" />
        </mxCell>
        <mxCell id="m2xjndi-wbcgePuahiK--22" value="" style="ellipse;whiteSpace=wrap;html=1;aspect=fixed;" vertex="1" parent="1">
          <mxGeometry x="150" y="530" width="140" height="140" as="geometry" />
        </mxCell>
        <mxCell id="m2xjndi-wbcgePuahiK--23" value="motor drive&amp;nbsp;&lt;br&gt;light detector rotates" style="text;html=1;strokeColor=none;fillColor=none;align=center;verticalAlign=middle;whiteSpace=wrap;rounded=0;" vertex="1" parent="1">
          <mxGeometry x="160" y="585" width="120" height="30" as="geometry" />
        </mxCell>
        <mxCell id="m2xjndi-wbcgePuahiK--24" value="" style="endArrow=classic;html=1;rounded=0;" edge="1" parent="1">
          <mxGeometry width="50" height="50" relative="1" as="geometry">
            <mxPoint x="280" y="560" as="sourcePoint" />
            <mxPoint x="390" y="560" as="targetPoint" />
          </mxGeometry>
        </mxCell>
        <mxCell id="m2xjndi-wbcgePuahiK--25" value="" style="ellipse;whiteSpace=wrap;html=1;aspect=fixed;" vertex="1" parent="1">
          <mxGeometry x="390" y="530" width="140" height="140" as="geometry" />
        </mxCell>
        <mxCell id="m2xjndi-wbcgePuahiK--26" value="move away from strong light position" style="text;html=1;strokeColor=none;fillColor=none;align=center;verticalAlign=middle;whiteSpace=wrap;rounded=0;" vertex="1" parent="1">
          <mxGeometry x="400" y="585" width="120" height="30" as="geometry" />
        </mxCell>
        <mxCell id="m2xjndi-wbcgePuahiK--27" value="strong light detected" style="text;html=1;strokeColor=none;fillColor=none;align=center;verticalAlign=middle;whiteSpace=wrap;rounded=0;" vertex="1" parent="1">
          <mxGeometry x="270" y="530" width="120" height="30" as="geometry" />
        </mxCell>
        <mxCell id="m2xjndi-wbcgePuahiK--29" value="no light detected" style="text;html=1;strokeColor=none;fillColor=none;align=center;verticalAlign=middle;whiteSpace=wrap;rounded=0;" vertex="1" parent="1">
          <mxGeometry x="280" y="660" width="120" height="30" as="geometry" />
        </mxCell>
        <mxCell id="m2xjndi-wbcgePuahiK--30" value="" style="endArrow=classic;html=1;rounded=0;entryX=1;entryY=1;entryDx=0;entryDy=0;" edge="1" parent="1" target="m2xjndi-wbcgePuahiK--22">
          <mxGeometry width="50" height="50" relative="1" as="geometry">
            <mxPoint x="390" y="650" as="sourcePoint" />
            <mxPoint x="440" y="600" as="targetPoint" />
          </mxGeometry>
        </mxCell>
        <mxCell id="m2xjndi-wbcgePuahiK--31" value="" style="curved=1;endArrow=classic;html=1;rounded=0;exitX=0.693;exitY=0.971;exitDx=0;exitDy=0;exitPerimeter=0;entryX=0.829;entryY=0.1;entryDx=0;entryDy=0;entryPerimeter=0;" edge="1" parent="1">
          <mxGeometry width="50" height="50" relative="1" as="geometry">
            <mxPoint x="510" y="670" as="sourcePoint" />
            <mxPoint x="529.04" y="548.06" as="targetPoint" />
            <Array as="points">
              <mxPoint x="631.98" y="634.06" />
              <mxPoint x="581.98" y="584.06" />
            </Array>
          </mxGeometry>
        </mxCell>
        <mxCell id="m2xjndi-wbcgePuahiK--32" value="strong light detected" style="text;html=1;strokeColor=none;fillColor=none;align=center;verticalAlign=middle;whiteSpace=wrap;rounded=0;" vertex="1" parent="1">
          <mxGeometry x="570" y="555" width="132" height="30" as="geometry" />
        </mxCell>
        <mxCell id="m2xjndi-wbcgePuahiK--35" value="" style="curved=1;endArrow=classic;html=1;rounded=0;" edge="1" parent="1">
          <mxGeometry width="50" height="50" relative="1" as="geometry">
            <mxPoint x="169.04" y="655.97" as="sourcePoint" />
            <mxPoint x="152.2155019593063" y="573.1856611616186" as="targetPoint" />
            <Array as="points">
              <mxPoint x="100" y="605" />
              <mxPoint x="110" y="560" />
            </Array>
          </mxGeometry>
        </mxCell>
        <mxCell id="m2xjndi-wbcgePuahiK--36" value="no light" style="text;html=1;strokeColor=none;fillColor=none;align=center;verticalAlign=middle;whiteSpace=wrap;rounded=0;" vertex="1" parent="1">
          <mxGeometry x="-20" y="585" width="120" height="30" as="geometry" />
        </mxCell>
      </root>
    </mxGraphModel>
  </diagram>
</mxfile>
